<svg width="27" height="28" viewBox="0 0 27 28" fill="none" xmlns="http://www.w3.org/2000/svg">
<path fill-rule="evenodd" clip-rule="evenodd" d="M6.95758 24.0734C7.92149 24.0734 8.70584 24.897 8.70584 25.911C8.70584 26.9249 7.92149 27.75 6.95758 27.75C5.99368 27.75 5.21068 26.9249 5.21068 25.911C5.21068 24.897 5.99368 24.0734 6.95758 24.0734ZM22.186 24.0734C23.1513 24.0734 23.9357 24.897 23.9357 25.911C23.9357 26.9249 23.1513 27.75 22.186 27.75C21.2221 27.75 20.4391 26.9249 20.4391 25.911C20.4391 24.897 21.2221 24.0734 22.186 24.0734ZM1.18523 0.0134725L3.99324 0.524708C4.44549 0.608494 4.78974 1.00328 4.82889 1.48612L5.14615 5.46381L6.32585 5.46435C6.51835 5.46444 6.70882 5.46453 6.89727 5.46462L9.06308 5.4657C9.23572 5.46579 9.40643 5.46588 9.57523 5.46597L11.9666 5.46735C12.1169 5.46745 12.2653 5.46754 12.4119 5.46763L14.0877 5.46876C14.2205 5.46885 14.3516 5.46894 14.481 5.46904L15.9549 5.47018C16.0713 5.47028 16.1861 5.47037 16.2993 5.47047L17.5845 5.47163C17.6855 5.47173 17.7851 5.47183 17.8833 5.47192L18.7279 5.47281C18.8176 5.47291 18.9058 5.473 18.9927 5.4731L19.9708 5.4743C20.0471 5.4744 20.1221 5.4745 20.1959 5.4746L21.0218 5.47581C21.0858 5.47591 21.1486 5.47602 21.2103 5.47612L21.7352 5.47704C21.7902 5.47714 21.8442 5.47725 21.897 5.47735L22.4817 5.4786C22.5264 5.4787 22.5702 5.4788 22.6129 5.47891L22.9728 5.47986C23.01 5.47996 23.0464 5.48007 23.0819 5.48017L23.4677 5.48145C23.4966 5.48156 23.5247 5.48167 23.5521 5.48178L23.7786 5.48275C23.8016 5.48286 23.824 5.48297 23.8456 5.48307L24.0748 5.48439C24.0914 5.4845 24.1075 5.48461 24.123 5.48472L24.2479 5.48571C24.2602 5.48583 24.272 5.48594 24.2833 5.48605L24.3732 5.48706C24.3819 5.48717 24.3902 5.48728 24.3981 5.4874L24.4593 5.48841C24.465 5.48853 24.4705 5.48864 24.4756 5.48876L24.5143 5.48979C24.5179 5.4899 24.5211 5.49002 24.5242 5.49013L24.5523 5.49152C24.554 5.49164 24.5556 5.49176 24.557 5.49187C24.5702 5.49316 24.5721 5.4934 24.5741 5.49364C25.326 5.60866 25.9875 6.02191 26.4384 6.65812C26.8893 7.2929 27.0783 8.07538 26.9703 8.85927L25.6892 18.1723C25.4475 19.9446 23.9841 21.2809 22.2831 21.2809H7.53971C5.76175 21.2809 4.25649 19.821 4.11204 17.9536L2.87544 2.48303L0.840979 2.1138C0.288827 2.01155 -0.0797245 1.46197 0.0147759 0.881153C0.111976 0.300333 0.645228 -0.0774138 1.18523 0.0134725ZM6.05501 7.59445L5.31625 7.59396L6.1303 17.7789C6.1897 18.5628 6.79855 19.1507 7.54241 19.1507H22.2804C22.9838 19.1507 23.5845 18.5997 23.6844 17.8684L24.9669 8.55395C24.9966 8.33241 24.944 8.11088 24.8157 7.93195C24.6888 7.75159 24.5025 7.63515 24.2919 7.6039C24.2822 7.6043 24.2589 7.60465 24.2226 7.60498L24.0758 7.60586C24.0451 7.60599 24.0113 7.60612 23.9745 7.60623L23.2097 7.60746C23.1452 7.60751 23.0781 7.60755 23.0086 7.60758L21.2104 7.60751C21.1101 7.60747 21.0078 7.60742 20.9038 7.60737L18.8516 7.60606C18.7287 7.60597 18.6044 7.60587 18.4788 7.60577L17.3176 7.60479C17.1854 7.60467 17.0521 7.60456 16.9179 7.60444L15.688 7.6033C15.5491 7.60317 15.4095 7.60303 15.2694 7.6029L14.4221 7.60208C14.28 7.60194 14.1374 7.6018 13.9945 7.60166L12.7016 7.60039C12.5574 7.60025 12.4132 7.60011 12.2689 7.59997L11.404 7.59912C11.2601 7.59898 11.1163 7.59884 10.9728 7.5987L10.1153 7.59788C9.97308 7.59775 9.83128 7.59762 9.68998 7.59748L8.43378 7.59635C8.29619 7.59623 8.15933 7.59611 8.0233 7.59599L6.43579 7.59472C6.30768 7.59463 6.18073 7.59453 6.05501 7.59445ZM20.1122 10.7129C20.6711 10.7129 21.1247 11.1901 21.1247 11.778C21.1247 12.3659 20.6711 12.8431 20.1122 12.8431H16.37C15.8097 12.8431 15.3575 12.3659 15.3575 11.778C15.3575 11.1901 15.8097 10.7129 16.37 10.7129H20.1122Z" fill="white"/>
</svg>
